<svg xmlns="http://www.w3.org/2000/svg" width="1176.227" height="1041.93"><path data-name="Shape 1" d="M301.387 1041.93a178.834 178.834 0 0 1-27.475-2.068 157.031 157.031 0 0 1-23.235-5.438 148.442 148.442 0 0 1-22.055-9.007 151.244 151.244 0 0 1-20.774-12.745 166.338 166.338 0 0 1-19.4-16.646 195.5 195.5 0 0 1-17.922-20.708 241.346 241.346 0 0 1-16.361-24.934 307.613 307.613 0 0 1-14.715-29.324c-4.632-10.551-9-21.951-12.983-33.884C93.701 789.01 66.642 694.32 46.042 605.735c-21.569-92.753-35.744-177.554-42.13-252.048-1.646-19.2-2.787-37.952-3.391-55.724-.613-18.053-.689-35.58-.224-52.092.472-16.782 1.515-32.967 3.1-48.1 1.611-15.391 3.825-30.113 6.58-43.758A338.412 338.412 0 0 1 20.2 114.957a242.939 242.939 0 0 1 14.031-34A178.521 178.521 0 0 1 52.24 52.386a140.992 140.992 0 0 1 22.154-22.767 127.1 127.1 0 0 1 23.625-15.212 132.828 132.828 0 0 1 27.2-9.9 158.592 158.592 0 0 1 30.86-4.326 208.788 208.788 0 0 1 34.612 1.5 290.049 290.049 0 0 1 38.473 7.578 410.815 410.815 0 0 1 42.449 13.907c14.863 5.733 30.523 12.628 46.545 20.492 16.251 7.977 33.329 17.175 50.758 27.338 27.659 16.128 55.886 33.64 83.9 52.049 26.792 17.608 54.1 36.505 81.161 56.166 25.8 18.746 52.065 38.681 78.056 59.252 24.691 19.542 49.785 40.168 74.583 61.306 85.785 73.123 171.987 155.6 256.213 245.14q2.817 2.995 5.63 6c33.961-39.332 68.153-80.373 101.631-121.991 29.962-37.245 53.795-68.068 68.512-87.366 15.944-20.907 24.917-33.162 25.006-33.283l1.614 1.181c-.089.122-9.073 12.392-25.03 33.315-14.725 19.308-38.569 50.145-68.544 87.407-33.54 41.694-67.792 82.805-101.815 122.206a3662.3 3662.3 0 0 1 90.659 100.613c25.374 29.234 50.077 58.646 73.425 87.421 39.758 49 62.085 79.556 62.306 79.859l-1.616 1.178c-.221-.3-22.528-30.833-62.26-79.8-23.335-28.759-48.026-58.155-73.386-87.372a3662.176 3662.176 0 0 0-90.443-100.378c-42.428 49.086-84.6 95.619-125.365 138.313C718.68 801.641 622.728 886.857 537.964 945.493c-24.514 16.957-48.405 31.885-71.012 44.369-11.753 6.49-23.4 12.455-34.63 17.729-11.51 5.408-22.9 10.241-33.847 14.367-11.218 4.227-22.292 7.83-32.915 10.709a281.9 281.9 0 0 1-31.833 6.755 221.165 221.165 0 0 1-30.6 2.5q-.87.008-1.74.008ZM164.312 1.993q-52.662 0-88.655 29.18a139 139 0 0 0-21.838 22.445 176.52 176.52 0 0 0-17.8 28.25 240.925 240.925 0 0 0-13.914 33.715 336.419 336.419 0 0 0-10.161 38.824C1.183 207.689-.846 274.68 5.913 353.517c6.378 74.4 20.538 159.1 42.086 251.766 20.586 88.524 47.628 183.154 80.374 281.26 3.964 11.875 8.31 23.218 12.918 33.713a305.566 305.566 0 0 0 14.618 29.133 239.4 239.4 0 0 0 16.224 24.726 193.486 193.486 0 0 0 17.738 20.5 164.307 164.307 0 0 0 19.161 16.445 149.22 149.22 0 0 0 20.5 12.576 146.378 146.378 0 0 0 21.757 8.885 154.991 154.991 0 0 0 22.938 5.368 177.712 177.712 0 0 0 28.891 2.036 219.161 219.161 0 0 0 30.324-2.477 279.925 279.925 0 0 0 31.606-6.707c10.562-2.863 21.575-6.446 32.733-10.651 10.9-4.107 22.239-8.921 33.7-14.306 11.187-5.256 22.8-11.2 34.514-17.67 22.548-12.451 46.382-27.344 70.841-44.263 84.653-58.559 180.5-143.687 284.88-253.018 40.783-42.717 82.983-89.279 125.437-138.4q-2.895-3.092-5.793-6.173c-84.174-89.483-170.32-171.905-256.046-244.978-24.779-21.121-49.852-41.731-74.524-61.257-25.969-20.553-52.208-40.47-77.988-59.2-27.036-19.642-54.315-38.52-81.08-56.11-27.98-18.389-56.175-35.881-83.8-51.99C287.1 25.6 219.024 1.993 164.312 1.993Z" fill="#ff6839"></path></svg>