<svg xmlns="http://www.w3.org/2000/svg" width="1920" height="910"><defs><clipPath id="a"><path transform="translate(0 7)" fill="#f9f9f9" d="M0 0h1920v910H0z"></path></clipPath></defs><g data-name="Mask Group 11" transform="translate(0 -7)" clip-path="url(#a)"><path data-name="Shape 1" d="M628.136 735.982a168.619 168.619 0 0 1 16.813 21.97 147.037 147.037 0 0 1 10.679 19.914 138.968 138.968 0 0 1 7.363 21.311 141.82 141.82 0 0 1 3.867 22.742 156.393 156.393 0 0 1 .198 24.202 184.44 184.44 0 0 1-3.641 25.695 228.569 228.569 0 0 1-7.646 27.227 292.315 292.315 0 0 1-11.824 28.805c-4.666 9.89-10.102 20.13-16.167 30.425-51.176 86.932-103.584 167.495-155.774 239.454-54.655 75.357-108.333 140.226-159.545 192.807-13.201 13.553-26.402 26.449-39.233 38.324-13.036 12.065-26.04 23.398-38.65 33.687-12.813 10.46-25.568 20.115-37.9 28.704-12.54 8.734-24.986 16.598-36.99 23.374a339.685 339.685 0 0 1-35.92 17.696 246.33 246.33 0 0 1-34.696 11.666 182.794 182.794 0 0 1-33.311 5.281 145.253 145.253 0 0 1-31.752-1.476 130.738 130.738 0 0 1-26.878-7.319 135.119 135.119 0 0 1-25.344-13.243 158.458 158.458 0 0 1-23.664-19.386 204.542 204.542 0 0 1-21.865-25.758 279.3 279.3 0 0 1-19.952-32.362 390.253 390.253 0 0 1-17.932-39.205c-5.642-14.27-10.956-29.848-15.805-46.292-4.911-16.68-9.47-34.729-13.56-53.632-6.522-30.18-12.396-61.66-17.458-93.562-4.842-30.513-9.068-62.229-12.568-94.256-3.334-30.54-6.093-62.173-8.197-94.023-1.997-30.256-3.462-61.501-4.348-92.864-3.06-108.488.551-223.3 10.735-341.249q.338-3.92.688-7.85c-51.512 1.034-104.42 2.983-157.306 5.802-48.12 2.565-87.322 5.392-111.728 7.305-26.447 2.077-41.712 3.567-41.863 3.582l-.195-1.99c.15-.015 15.424-1.51 41.888-3.585 24.418-1.918 63.632-4.743 111.772-7.308 52.99-2.825 105.999-4.779 157.61-5.809a3399.927 3399.927 0 0 1 14.105-129.654c4.746-36.989 10.074-73.613 15.835-108.857 9.81-60.013 17.58-95.676 17.657-96.03l1.954.428c-.076.353-7.838 35.98-17.643 95.951-5.757 35.223-11.085 71.828-15.825 108.792a3407.26 3407.26 0 0 0-14.077 129.33l1.247-.024c65.805-1.264 129.453-1.02 189.185.725 152.067 4.447 279.979 18.543 380.181 41.899 28.979 6.754 55.992 14.385 80.291 22.68 12.631 4.314 24.795 8.894 36.152 13.62 11.643 4.845 22.766 9.977 33.059 15.252 10.545 5.405 20.518 11.115 29.64 16.97a271.461 271.461 0 0 1 25.9 18.772 210.346 210.346 0 0 1 21.828 20.667ZM-57.776 1498.76q35.57 39.503 82.098 47.051a143.243 143.243 0 0 0 31.315 1.456 180.8 180.8 0 0 0 32.945-5.219 244.319 244.319 0 0 0 34.412-11.572 337.623 337.623 0 0 0 35.708-17.593c46.872-26.46 98.123-68.093 152.324-123.744 51.145-52.513 104.76-117.306 159.359-192.586 52.153-71.908 104.526-152.417 155.666-239.292 6.031-10.246 11.442-20.429 16.08-30.264a290.355 290.355 0 0 0 11.744-28.605 226.577 226.577 0 0 0 7.583-26.99 182.477 182.477 0 0 0 3.604-25.416 154.422 154.422 0 0 0-.195-23.892 139.823 139.823 0 0 0-3.812-22.42 136.954 136.954 0 0 0-7.257-21.004 145.018 145.018 0 0 0-10.534-19.641 167.057 167.057 0 0 0-17.217-22.376 208.327 208.327 0 0 0-21.62-20.465 269.388 269.388 0 0 0-25.705-18.634c-9.069-5.82-18.985-11.497-29.472-16.872-10.246-5.252-21.32-10.36-32.915-15.184-11.314-4.709-23.436-9.276-36.032-13.578-24.235-8.273-51.183-15.886-80.095-22.624C300.14 605.97 172.365 591.89 20.435 587.447c-59.7-1.743-123.313-1.99-189.078-.724l-1.484.03q-.36 4.05-.709 8.092c-10.175 117.869-13.783 232.6-10.724 341.008.884 31.335 2.344 62.55 4.343 92.782 2.103 31.82 4.858 63.422 8.19 93.932 3.494 31.997 7.718 63.675 12.555 94.156 5.056 31.864 10.923 63.305 17.437 93.447 18.629 86.22 45.83 149.241 81.26 188.59Z" fill="#ff6839"></path></g></svg>